<svg enable-background="new 0 0 32 32" viewBox="0 0 32 32" xmlns="http://www.w3.org/2000/svg"><circle cx="15.5" cy="15.65" fill="#fff" r="15.45"/><circle cx="15.5" cy="15.65" fill="#164a7f" r="13.69"/><path d="m25.19 5.97c-2.48-2.48-5.9-4.02-9.69-4.02-7.56 0-13.69 6.13-13.69 13.69 0 3.67 1.45 7.01 3.8 9.47z" fill="#1c538c"/><g fill="#7396c9" opacity=".2"><path d="m4.6 12.67c.23.05.49-.11.55-.31.39-1.38 1.04-2.65 1.95-3.78.15-.18.12-.46-.07-.62-.19-.15-.47-.12-.62.07-.98 1.22-1.69 2.6-2.11 4.1-.07.23.07.49.3.54z"/><path d="m26.45 15.68c.24 0 .44-.2.44-.44 0-6.35-5.16-11.51-11.51-11.51-2.75 0-5.41.98-7.49 2.77-.18.15-.2.43-.04.62s.44.21.62.05c1.92-1.65 4.38-2.55 6.91-2.55 5.86 0 10.63 4.77 10.63 10.63 0 .23.2.43.44.43z"/><path d="m24.03 15.95h.04c.24-.02.43-.23.41-.48-.15-1.85-.67-3.6-1.54-5.19-.71-1.29-1.77-2.39-3.08-3.16-1.36-.8-2.9-1.22-4.48-1.22-4.13 0-7.78 2.76-8.88 6.72-.04.14-.08.34-.14.59-.08.38-.39.67-.77.72-.37.05-.8.08-1.26.1-.24.01-.43.22-.42.46s.22.43.46.42c.49-.02.94-.06 1.34-.1.76-.1 1.37-.67 1.53-1.42.05-.23.09-.41.12-.53.99-3.57 4.3-6.07 8.03-6.07 1.42 0 2.81.38 4.02 1.09 1.17.69 2.13 1.67 2.76 2.82.81 1.48 1.3 3.11 1.44 4.84 0 .24.2.41.42.41z"/><path d="m22.06 16.56h.01c.24 0 .44-.19.44-.43.01-.41 0-.75-.04-1.03-.03-1.82-.76-3.54-2.04-4.84-.17-.17-.45-.18-.63-.01-.17.17-.18.45-.01.63 1.13 1.14 1.76 2.66 1.79 4.26v.05c.03.24.04.55.03.92.02.24.21.45.45.45z"/><path d="m4.36 17.04h.06c1.37-.05 2.5-.23 3.36-.51.8-.27 1.36-.99 1.42-1.85.01-.17.03-.33.06-.49.25-1.43.99-2.73 2.1-3.67 1.12-.96 2.55-1.48 4.02-1.48 1 0 1.99.24 2.88.71.22.11.48.03.6-.19.11-.22.03-.48-.19-.6-1.01-.53-2.14-.81-3.29-.81-1.68 0-3.32.6-4.6 1.69-1.27 1.08-2.12 2.57-2.4 4.2-.03.19-.06.38-.07.58-.04.5-.36.92-.82 1.08-.54.18-1.52.4-3.11.47h-.06c-.24.01-.43.22-.43.46.01.24.21.43.44.43.01-.02.02-.02.03-.02z"/><path d="m16.51 25.78c-.45.28-.94.53-1.44.76-.22.1-.33.36-.23.58.07.17.24.27.41.27.06 0 .12-.01.18-.04.54-.24 1.07-.51 1.55-.81.21-.13.27-.4.14-.61s-.4-.28-.61-.15z"/><path d="m19.85 17.5c.24.03.46-.15.49-.39.11-1.02.04-1.74.03-1.89-.01-2.74-2.24-4.96-4.98-4.96-2.43 0-4.5 1.74-4.91 4.13-.06.32-.07.67-.05 1.06.01.24-.03.71-.48 1.21-.6.66-2.04 1.48-5.48 1.61-.24.01-.43.22-.43.46.01.24.21.43.44.43h.02c3.01-.12 5.06-.76 6.1-1.9.67-.74.73-1.48.71-1.86-.02-.32-.01-.6.04-.86.34-1.97 2.04-3.4 4.04-3.4 2.26 0 4.1 1.84 4.1 4.1v.05c0 .01.08.7-.03 1.72-.03.24.15.46.39.49z"/><path d="m17.12 23.03c-.16-.18-.44-.2-.63-.04-1.47 1.3-3.44 2.16-5.87 2.58-.24.04-.4.27-.36.51.04.22.22.37.44.37.02 0 .05 0 .07-.01 2.6-.44 4.72-1.38 6.31-2.79.19-.16.2-.44.04-.62z"/><path d="m18.36 15.22c-.01-1.63-1.34-2.96-2.98-2.96-1.45 0-2.69 1.04-2.93 2.47-.03.17-.04.36-.02.6.03.55-.06 1.63-1 2.67-.98 1.07-2.52 1.75-4.72 2.08-.59.05-1.15.09-1.67.14-.24.02-.42.24-.4.48s.24.42.48.4c.52-.05 1.08-.1 1.67-.14h.03c2.42-.35 4.14-1.12 5.26-2.36 1.16-1.28 1.27-2.63 1.23-3.32-.01-.17-.01-.3.01-.4.17-1 1.04-1.73 2.06-1.73 1.15 0 2.09.94 2.09 2.09v.04c0 .03.25 3.26-1.77 5.5-1.12 1.24-3.75 2.71-7.78 3.1-.24.02-.42.24-.4.48.02.23.21.4.44.4h.04c3.58-.35 6.78-1.64 8.35-3.39 2.23-2.46 2.03-5.83 2.01-6.15z"/><path d="m10.86 21.07c-.59.26-1.22.47-1.89.63-.86.21-1.78.34-2.73.39-.24.01-.43.22-.42.46s.21.42.44.42h.02c1.01-.05 1.99-.19 2.9-.41.71-.17 1.4-.4 2.03-.68 1.22-.53 2.29-1.24 3.17-2.12.93-.92 1.42-2.4 1.39-4.16 0-.02 0-.03 0-.04.01-.12-.03-.25-.13-.35-.17-.17-.45-.17-.63 0-.13.13-.13.28-.13.4.03 1.52-.37 2.77-1.13 3.52-.8.81-1.78 1.46-2.89 1.94z"/></g><g fill="#fff"><circle cx="10.33" cy="11.47" r="1.14"/><path d="m21.99 13.74c-.28-1.01-.82-1.84-1.62-2.47-.56-.44-1.17-.71-1.83-.82h-.01c-.57-.08-1.16-.12-1.77-.12h-4.12c-.06 0-.11.05-.11.11v9.62h-1.05v-6.67c0-.06-.05-.11-.11-.11h-2.07c-.06 0-.11.05-.11.11v7.83.01c.01.61.51 1.1 1.12 1.12h.02 2.31.01 4.1c.75 0 1.48-.09 2.16-.28.76-.2 1.43-.62 2-1.25l.01-.01c.54-.63.93-1.36 1.15-2.18v-.02c.19-.76.28-1.53.28-2.29.02-.79-.11-1.67-.36-2.58zm-1.96 2.6c.01.67-.1 1.37-.31 2.05-.19.6-.55 1.05-1.08 1.38-.32.16-.64.27-.95.33-.36.06-.74.09-1.13.08h-1.72v-7.67h1.7c.41 0 .81.02 1.21.06.32.04.59.12.82.26.58.35.96.8 1.16 1.38.2.67.3 1.38.3 2.12z"/><path d="m25.99 19.74c-3.3 0-5.98 2.68-5.98 5.98s2.68 5.98 5.98 5.98 5.98-2.68 5.98-5.98-2.68-5.98-5.98-5.98z"/></g><path d="m27.96 24.71h-.07v-.52c0-1.01-.76-1.89-1.77-1.96-1.1-.07-2.03.8-2.03 1.89v.59h-.07c-.29 0-.53.24-.53.53v2.81c0 .29.24.53.53.53h3.93c.29 0 .53-.24.53-.53v-2.81c0-.29-.23-.53-.52-.53zm-2.96-.51c0-.59.44-1.07.99-1.07.54 0 .99.48.99 1.07v.51h-1.98zm2.47 3.47h-2.95c-.06 0-.11-.05-.11-.11v-1.84c0-.06.05-.11.11-.11h2.95c.06 0 .11.05.11.11v1.84c0 .06-.05.11-.11.11z" fill="#164a7f"/></svg>